<svg fill="none" height="24" viewBox="0 0 24 24" width="24" xmlns="http://www.w3.org/2000/svg"><path d="m3.75 19.5-1.5-11.25h19.5l-1.5 11.25z" fill="#73b8ec"/><g fill="#00539d"><path d="m12.75 16.5v-5.25c0-.1989-.079-.3897-.2197-.5303-.1406-.1407-.3314-.2197-.5303-.2197s-.3897.079-.5303.2197c-.1407.1406-.2197.3314-.2197.5303v5.25c0 .1989.079.3897.2197.5303.1406.1407.3314.2197.5303.2197s.3897-.079.5303-.2197c.1407-.1406.2197-.3314.2197-.5303z"/><path d="m15.6788 16.425.5249-5.25c.0199-.1979.1176-.3798.2717-.5057.154-.1259.3517-.1854.5496-.1656.1979.0199.3798.1176.5057.2717.1259.154.1854.3517.1655.5496l-.5249 5.25c-.0186.1848-.1051.3562-.2428.4809s-.3168.1939-.5026.1941c-.0253.0014-.0506.0014-.0759 0-.0984-.0098-.1938-.039-.2808-.0858-.0871-.0469-.164-.1105-.2264-.1871-.0623-.0767-.1089-.1649-.1371-.2597-.0282-.0947-.0373-.1941-.0269-.2924z"/><path d="m7.52465 10.6693c.15401.1259.25171.3078.2716.5057l.52969 5.2537c.00985.098.0003.197-.0281.2913-.02841.0943-.07511.1821-.13744.2584s-.13907.1395-.22584.1861-.18187.0757-.27987.0855c-.0253.0014-.05065.0014-.07594 0-.18657.0009-.3668-.0677-.50548-.1925s-.22587-.2969-.24452-.4825l-.525-5.25c-.01989-.1979.03965-.3956.16554-.5496.12588-.1541.30779-.2518.50571-.2717.19792-.0198.39563.0397.54965.1656z"/><path clip-rule="evenodd" d="m2.99642 7.5c-.21263.00036-.42278.04592-.61649.13369-.1948.08825-.36847.21714-.50937.37802s-.24577.35003-.30758.55476-.07913.42031-.05079.63228l1.30031 9.74995c.04817.3604.2256.691.49927.9304.27367.2393.62497.3711.98854.3709h15.39939c.3636.0002.7149-.1316.9885-.3709.2737-.2394.4511-.57.4993-.9304l1.2994-9.75089h-.001c.0282-.21174.0108-.42706-.0509-.63154-.0618-.20449-.1665-.39342-.3072-.55416s-.3141-.28958-.5086-.3779c-.194-.0881-.4046-.13385-.6177-.13421zm.00358 1.5h18l-1.3003 9.75h-15.39939z" fill-rule="evenodd"/></g><path d="m11.136 2.64748c.2195-.35125.1128-.81397-.2385-1.0335-.3512-.21953-.814-.11275-1.03349.2385l-3.75 6c-.21953.35125-.11275.81396.2385 1.0335.35125.21953.81396.11275 1.0335-.2385z" fill="#1f1f1f"/><path d="m14.136 1.85248c-.2195-.35125-.6822-.45803-1.0335-.2385-.3512.21953-.458.68225-.2385 1.0335l3.75 6c.2195.35125.6823.45803 1.0335.2385.3513-.21954.458-.68225.2385-1.0335z" fill="#1f1f1f"/></svg>