<svg fill="none" height="24" viewBox="0 0 24 24" width="24" xmlns="http://www.w3.org/2000/svg"><path d="m16.2806 9.21937c.0698.06966.1251.15238.1628.24342.0378.09105.0572.18865.0572.28721s-.0194.19616-.0572.2872c-.0377.0911-.093.1738-.1628.2434l-5.25 5.25c-.0696.0698-.1523.1251-.2434.1628-.091.0378-.1886.0572-.2872.0572s-.1962-.0194-.2872-.0572c-.091-.0377-.1738-.093-.24342-.1628l-2.25-2.25c-.14073-.1407-.21979-.3316-.21979-.5306s.07906-.3899.21979-.5306c.14073-.1408.3316-.2198.53062-.2198.19903 0 .3899.079.53063.2198l1.71937 1.7203 4.7194-4.72033c.0696-.06973.1524-.12505.2434-.16279s.1886-.05717.2872-.05717.1962.01943.2872.05717c.0911.03774.1738.09306.2434.16279zm5.4694 2.78063c0 1.9284-.5718 3.8134-1.6432 5.4168-1.0713 1.6034-2.5941 2.8531-4.3756 3.591-1.7816.738-3.742.9311-5.6333.5549-1.89134-.3762-3.62862-1.3048-4.99219-2.6684-1.36356-1.3636-2.29216-3.1009-2.66836-4.9922-.37621-1.8913-.18313-3.8517.55483-5.63326.73795-1.78158 1.98764-3.30433 3.59101-4.37567 1.60338-1.07134 3.48841-1.64317 5.41681-1.64317 2.585.00273 5.0634 1.03084 6.8913 2.85872 1.8279 1.82789 2.856 4.30626 2.8587 6.89128zm-1.5 0c0-1.6317-.4839-3.22675-1.3904-4.58345-.9065-1.35671-2.195-2.41413-3.7025-3.03856-1.5074-.62442-3.1662-.7878-4.7666-.46947-1.60033.31833-3.07034 1.10407-4.22413 2.25785-1.15378 1.15378-1.93952 2.62379-2.25784 4.22413-.31833 1.6003-.15495 3.2591.46947 4.7666s1.68184 2.796 3.03855 3.7025 2.95175 1.3904 4.58345 1.3904c2.1873-.0025 4.2843-.8725 5.8309-2.4191s2.4166-3.6436 2.4191-5.8309z" fill="#329f5b"/></svg>