<svg fill="none" height="24" viewBox="0 0 24 24" width="24" xmlns="http://www.w3.org/2000/svg"><path d="m16.5 7.875c0-1.86375-3.3581-3.375-7.5-3.375-4.14188 0-7.5 1.51125-7.5 3.375s3.35812 3.375 7.5 3.375c4.1419 0 7.5-1.51125 7.5-3.375z" fill="#f2df8a"/><path d="m1.5 12.5v-4s1 2.5 7.5 2.5 7.5-2.5 7.5-2.5v4s-1.5 2.5-7.5 2.5-7.5-2.5-7.5-2.5z" fill="#deb974"/><path d="m7.5 17v-4s1 2.5 7.5 2.5 7.5-2.5 7.5-2.5v4s-1.5 2.5-7.5 2.5-7.5-2.5-7.5-2.5z" fill="#deb974"/><path d="m15.0001 15.75c4.1419 0 7.5-1.5112 7.5-3.375 0-1.6331-2.5762-2.99437-6-3.3075v2.5575c0 1.6875-2.7412 3.0797-6.3253 3.3338 1.3041.494 2.9878.7912 4.8253.7912z" fill="#f2df8a"/><path d="m17.25 8.39719v-.52219c0-2.35125-3.5466-4.125-8.25-4.125-4.70344 0-8.25 1.77375-8.25 4.125v3.75c0 1.9584 2.46094 3.5147 6 3.9806v.5194c0 2.3512 3.5466 4.125 8.25 4.125s8.25-1.7738 8.25-4.125v-3.75c0-1.9406-2.3831-3.49875-6-3.97781zm4.5 3.97781c0 1.2394-2.8866 2.625-6.75 2.625-.3497 0-.6966-.0122-1.0387-.0347 2.0221-.7369 3.2887-1.9341 3.2887-3.3403v-1.71187c2.8003.41717 4.5 1.54967 4.5 2.46187zm-15 1.7109v-2.2303c.74604.0972 1.49765.1455 2.25.1444.75235.0011 1.504-.0472 2.25-.1444v2.2303c-.7449.1101-1.49698.1649-2.25.1641-.75302.0008-1.50507-.054-2.25-.1641zm9-3.78v1.3191c0 .7866-1.1634 1.6312-3 2.1441v-2.191c1.2103-.2934 2.235-.7303 3-1.2722zm-6.75-5.0559c3.8634 0 6.75 1.38562 6.75 2.625s-2.8866 2.625-6.75 2.625c-3.86344 0-6.75-1.38562-6.75-2.625s2.88656-2.625 6.75-2.625zm-6.75 6.375v-1.3191c.765.5419 1.78969.9788 3 1.2722v2.191c-1.83656-.5129-3-1.3575-3-2.1441zm6 4.5v-.3909c.24656.0093.49594.0159.75.0159.36375 0 .71906-.0122 1.0678-.0328.3874.1387.7821.2564 1.1822.3525v2.1994c-1.83656-.5129-3-1.3575-3-2.1441zm4.5 2.4609v-2.2359c.7458.1003 1.4975.1504 2.25.15.7523.0011 1.504-.0472 2.25-.1444v2.2303c-1.492.2188-3.008.2188-4.5 0zm6-.3168v-2.191c1.2103-.2934 2.235-.7303 3-1.2722v1.3191c0 .7866-1.1634 1.6312-3 2.1441z" fill="#967a44"/></svg>