<svg fill="none" height="24" viewBox="0 0 24 24" width="24" xmlns="http://www.w3.org/2000/svg"><path d="m8.25 6c0-.19891.07902-.38968.21967-.53033s.33142-.21967.53033-.21967h11.25c.1989 0 .3897.07902.5303.21967.1407.14065.2197.33142.2197.53033s-.079.38968-.2197.53033c-.1406.14065-.3314.21967-.5303.21967h-11.25c-.19891 0-.38968-.07902-.53033-.21967s-.21967-.33142-.21967-.53033zm12 5.25h-11.25c-.19891 0-.38968.079-.53033.2197-.14065.1406-.21967.3314-.21967.5303s.07902.3897.21967.5303c.14065.1407.33142.2197.53033.2197h11.25c.1989 0 .3897-.079.5303-.2197.1407-.1406.2197-.3314.2197-.5303s-.079-.3897-.2197-.5303c-.1406-.1407-.3314-.2197-.5303-.2197zm-8 6h-3.25c-.19891 0-.38968.079-.53033.2197-.14065.1406-.21967.3314-.21967.5303s.07902.3897.21967.5303c.14065.1407.33142.2197.53033.2197h3.25c.1989 0 .3897-.079.5303-.2197.1407-.1406.2197-.3314.2197-.5303s-.079-.3897-.2197-.5303c-.1406-.1407-.3314-.2197-.5303-.2197z" fill="#292929"/><g fill="#c0433f"><path d="m3.75 5.25h1.5c.19891 0 .38968.07902.53033.21967s.21967.33142.21967.53033-.07902.38968-.21967.53033-.33142.21967-.53033.21967h-1.5c-.19891 0-.38968-.07902-.53033-.21967s-.21967-.33142-.21967-.53033.07902-.38968.21967-.53033.33142-.21967.53033-.21967z"/><path d="m3.75 11.25h1.5c.19891 0 .38968.079.53033.2197.14065.1406.21967.3314.21967.5303s-.07902.3897-.21967.5303c-.14065.1407-.33142.2197-.53033.2197h-1.5c-.19891 0-.38968-.079-.53033-.2197-.14065-.1406-.21967-.3314-.21967-.5303s.07902-.3897.21967-.5303c.14065-.1407.33142-.2197.53033-.2197z"/><path d="m3.75 17.25h1.5c.19891 0 .38968.079.53033.2197.14065.1406.21967.3314.21967.5303s-.07902.3897-.21967.5303c-.14065.1407-.33142.2197-.53033.2197h-1.5c-.19891 0-.38968-.079-.53033-.2197-.14065-.1406-.21967-.3314-.21967-.5303s.07902-.3897.21967-.5303c.14065-.1407.33142-.2197.53033-.2197z"/></g><path clip-rule="evenodd" d="m24 19.5c0 2.4853-2.0147 4.5-4.5 4.5s-4.5-2.0147-4.5-4.5 2.0147-4.5 4.5-4.5 4.5 2.0147 4.5 4.5zm-2.976 2.5846c-.4466.2639-.9676.4154-1.524.4154-1.6569 0-3-1.3431-3-3 0-.5564.1515-1.0774.4154-1.524zm1.0607-1.0607-4.1086-4.1086c.4466-.2639.9676-.4153 1.5239-.4153 1.6569 0 3 1.3431 3 3 0 .5563-.1514 1.0773-.4153 1.5239z" fill="#f0544f" fill-rule="evenodd"/></svg>