<svg fill="none" height="24" viewBox="0 0 24 24" width="24" xmlns="http://www.w3.org/2000/svg"><path d="m22.5391 5.51225c.1271.00656.2504.04536.3584.11274.1078.06826.1964.16288.2574.27493.061.11204.0925.2378.0914.36539v11.24339c-.0002.1404-.0397.2779-.1141.3969-.0745.119-.1808.2147-.3069.2763-1.9856.9693-3.7331 1.3181-5.3353 1.3181-2.0761 0-3.9124-.587-5.715-1.1632l-.0131-.0042c-3.03966-.972-5.91227-1.8906-9.93284.0761-.11435.0559-.24102.0817-.3681.0751-.12708-.0067-.25038-.0455-.35831-.1129-.107925-.0674-.196921-.1612-.258614-.2725s-.094053-.2365-.094036-.3637v-11.24346c-.000122-.14148.039777-.28011.115091-.39988.075313-.11977.182969-.2158.310539-.27699 4.56562-2.22938 7.87031-1.17469 11.05777-.15375l.0054.00172c3.0365.97249 5.9098 1.89274 9.9321-.07485.1144-.05591.2411-.0818.3682-.07524z" fill="#e7b8a4"/><path d="m22.8975 5.62499c-.108-.06738-.2313-.10618-.3584-.11274s-.2538.01933-.3682.07524c-4.0246 1.96875-6.899 1.04625-9.9375.07313-3.18746-1.02094-6.49215-2.07563-11.05777.15375-.12757.06119-.235226.15722-.310539.27699-.075314.11977-.115213.2584-.115091.39988v11.24346c-.000018.1272.032343.2524.094035.3637.061693.1113.15069.2051.258615.2725.10793.0674.23123.1062.35831.1129.12708.0066.25375-.0192.3681-.0751 4.02469-1.9687 6.89906-1.0462 9.94214-.0731 1.8038.5766 3.6413 1.1644 5.7188 1.1644 1.6022 0 3.3497-.3488 5.3353-1.3181.1261-.0616.2324-.1573.3069-.2763.0744-.119.1139-.2565.1141-.3969v-11.24339c.0011-.12759-.0304-.25335-.0914-.36539-.061-.11205-.1496-.20667-.2574-.27493zm-1.1475 11.40661c-3.8062 1.7034-6.5859.8146-9.5212-.1238-1.8038-.5766-3.6413-1.1644-5.7188-1.1644-1.45959.0071-2.90433.2935-4.25625.8438v-9.61877c3.80625-1.70344 6.58594-.81469 9.52125.12375 2.9353.93844 5.9569 1.90781 9.975.3225zm-9.75-8.03161c-.5933 0-1.1734.17595-1.6667.5056-.49336.32964-.87788.79821-1.10494 1.34631-.22706.5482-.28647 1.1514-.17072 1.7334.11576.5819.40148 1.1165.82104 1.536.41952.4196.95412.7053 1.53602.821.582.1158 1.1852.0564 1.7333-.1707.5482-.227 1.0168-.6115 1.3464-1.1049.3297-.4933.5056-1.0734.5056-1.6667 0-.7957-.3161-1.5587-.8787-2.12133-.5626-.56261-1.3257-.87868-2.1213-.87868zm0 4.50001c-.2967 0-.5867-.088-.8334-.2528-.2466-.1648-.4389-.3991-.5524-.6732-.1136-.2741-.1433-.5757-.0854-.8666.0579-.291.2008-.5583.4105-.7681.2098-.2097.4771-.3526.7681-.4105.2909-.0579.5925-.0282.8666.0854.2741.1135.5084.3058.6732.5524.1648.2467.2528.5367.2528.8334 0 .3978-.158.7793-.4393 1.0607-.2813.2813-.6629.4393-1.0607.4393zm-6.75-4.50001v4.50001c0 .1989-.07902.3897-.21967.5303-.14065.1407-.33142.2197-.53033.2197s-.38968-.079-.53033-.2197c-.14065-.1406-.21967-.3314-.21967-.5303v-4.50001c0-.19891.07902-.38967.21967-.53033.14065-.14065.33142-.21967.53033-.21967s.38968.07902.53033.21967c.14065.14066.21967.33142.21967.53033zm13.5 6.00001v-4.5c0-.1989.079-.3897.2197-.53034.1406-.14065.3314-.21967.5303-.21967s.3897.07902.5303.21967c.1407.14064.2197.33144.2197.53034v4.5c0 .1989-.079.3897-.2197.5303-.1406.1407-.3314.2197-.5303.2197s-.3897-.079-.5303-.2197c-.1407-.1406-.2197-.3314-.2197-.5303z" fill="#b44532"/></svg>