<svg fill="none" height="24" viewBox="0 0 24 24" width="24" xmlns="http://www.w3.org/2000/svg"><path d="m21 12c0 1.78-.5278 3.5201-1.5168 5.0001-.9889 1.4801-2.3945 2.6336-4.039 3.3148-1.6446.6812-3.4542.8594-5.2.5122-1.74584-.3473-3.34948-1.2045-4.60816-2.4631-1.25867-1.2587-2.11584-2.8624-2.4631-4.6082-.34727-1.7458-.16904-3.5554.51215-5.19995.68119-1.64454 1.83474-3.05014 3.31478-4.03908 1.48004-.98893 3.22013-1.51677 5.00013-1.51677 2.387 0 4.6761.94821 6.364 2.63604 1.6878 1.68783 2.636 3.97701 2.636 6.36396z" fill="#d0e7f9"/><path d="m15 14.25c-.0002.6703-.1999 1.3254-.5739 1.8818-.3739.5563-.905.9887-1.5256 1.242-.6206.2534-1.3026.3162-1.959.1804-.6565-.1358-1.2576-.4639-1.72681-.9426-.07328-.0694-.13183-.1528-.17213-.2453-.0403-.0924-.06153-.1921-.06241-.293-.00089-.1009.01859-.2009.05726-.2941.03867-.0931.09574-.1776.1678-.2482s.15762-.1259.25156-.1627c.09395-.0367.19434-.0542.29518-.0512.10084.0029.20006.0261.29175.0683.0916.0422.1738.1024.2416.1771.2164.2207.484.3846.779.4769s.6082.1103.9119.0523c.3036-.058.5882-.1902.8283-.3847.2402-.1946.4286-.4455.5484-.7305.1197-.285.1672-.5951.1381-.9029-.0291-.3077-.1338-.6035-.3048-.861s-.403-.4687-.6754-.6148c-.2724-.1462-.5767-.2227-.8858-.2228-.1372 0-.2718-.0377-.389-.1089-.1173-.0712-.2128-.1732-.2761-.295-.0634-.1217-.0921-.2584-.0831-.3953s.0554-.2687.1341-.3811l1.7982-2.5697h-3.0591c-.19891 0-.38967-.07902-.53033-.21967-.14065-.14065-.21967-.33142-.21967-.53033s.07902-.38968.21967-.53033c.14066-.14065.33142-.21967.53033-.21967h4.5c.1372.00004.2718.03771.389.10892.1173.07121.2128.17322.2761.29493.0634.12172.0921.25847.0831.39537-.009.13691-.0554.26872-.1341.38109l-1.9688 2.81249c.6224.2538 1.155.6873 1.5299 1.2452s.575 1.2149.5748 1.887zm6.75-2.25c0 1.9284-.5718 3.8134-1.6432 5.4168-1.0713 1.6034-2.5941 2.8531-4.3756 3.591-1.7816.738-3.742.9311-5.6333.5549-1.89134-.3762-3.62862-1.3048-4.99219-2.6684-1.36356-1.3636-2.29216-3.1009-2.66836-4.9922-.37621-1.8913-.18313-3.8517.55483-5.63326.73795-1.78158 1.98764-3.30433 3.59101-4.37567 1.60338-1.07134 3.48841-1.64317 5.41681-1.64317 2.585.00273 5.0634 1.03084 6.8913 2.85872 1.8279 1.82789 2.856 4.30626 2.8587 6.89128zm-1.5 0c0-1.6317-.4839-3.22675-1.3904-4.58345-.9065-1.35671-2.195-2.41413-3.7025-3.03856-1.5074-.62442-3.1662-.7878-4.7666-.46947-1.60033.31833-3.07034 1.10407-4.22413 2.25785-1.15378 1.15378-1.93952 2.62379-2.25784 4.22413-.31833 1.6003-.15495 3.2591.46947 4.7666s1.68184 2.796 3.03855 3.7025 2.95175 1.3904 4.58345 1.3904c2.1873-.0025 4.2843-.8725 5.8309-2.4191s2.4166-3.6436 2.4191-5.8309z" fill="#116db3"/></svg>