<svg fill="none" height="24" viewBox="0 0 24 24" width="24" xmlns="http://www.w3.org/2000/svg"><path d="m21 12c0 1.78-.5278 3.5201-1.5168 5.0001-.9889 1.4801-2.3945 2.6336-4.039 3.3148-1.6446.6812-3.4542.8594-5.2.5122-1.74584-.3473-3.34948-1.2045-4.60816-2.4631-1.25867-1.2587-2.11584-2.8624-2.4631-4.6082-.34727-1.7458-.16904-3.5554.51215-5.19995.68119-1.64454 1.83474-3.05014 3.31478-4.03908 1.48004-.98893 3.22013-1.51677 5.00013-1.51677 2.387 0 4.6761.94821 6.364 2.63604 1.6878 1.68783 2.636 3.97701 2.636 6.36396z" fill="#d0e7f9"/><path d="m14.3963 11.5556-3.1463 4.1944h3c.1989 0 .3897.079.5303.2197.1407.1406.2197.3314.2197.5303s-.079.3897-.2197.5303c-.1406.1407-.3314.2197-.5303.2197h-4.5c-.13928 0-.27581-.0388-.39429-.112-.11849-.0732-.21424-.178-.27653-.3026s-.08865-.264-.07615-.4028c.01251-.1387.0634-.2712.14697-.3826l4.0472-5.3963c.1296-.1726.2204-.3713.2661-.5823.0458-.211.0455-.4294-.0009-.64027s-.1378-.40924-.2679-.58155-.2959-.3145-.486-.41686c-.1901-.10235-.4001-.16246-.6155-.17621-.2155-.01376-.4314.01917-.633.09653-.2016.07735-.3841.19732-.535.35169-.151.15437-.2669.33951-.3397.54277-.0664.1876-.2046.34114-.3842.42685s-.38584.09657-.57344.03018-.34114-.20458-.42685-.38417c-.08571-.1796-.09657-.38589-.03018-.57348.14468-.40731.37566-.77854.67714-1.08828.30143-.30974.66633-.55067 1.06953-.70631.4033-.15564.8354-.22231 1.2668-.19544.4314.02688.8519.14665 1.2327.35113s.7129.48883.9736.83359.4439.74178.5369 1.16389.0937.85933.0021 1.28174c-.0917.4224-.2736.82-.5331 1.1656zm7.3537.4444c0 1.9284-.5718 3.8134-1.6432 5.4168-1.0713 1.6034-2.5941 2.8531-4.3756 3.591-1.7816.738-3.742.9311-5.6333.5549-1.89134-.3762-3.62862-1.3048-4.99219-2.6684-1.36356-1.3636-2.29216-3.1009-2.66836-4.9922-.37621-1.8913-.18313-3.8517.55483-5.63326.73795-1.78158 1.98764-3.30432 3.59101-4.37567 1.60338-1.07134 3.48841-1.64317 5.41681-1.64317 2.585.00273 5.0634 1.03084 6.8913 2.85872 1.8279 1.82789 2.856 4.30626 2.8587 6.89128zm-1.5 0c0-1.6317-.4838-3.22675-1.3904-4.58345-.9065-1.35671-2.195-2.41413-3.7025-3.03856-1.5074-.62442-3.1662-.7878-4.7666-.46947-1.60033.31833-3.07034 1.10407-4.22413 2.25785-1.15378 1.15378-1.93952 2.62379-2.25784 4.22413-.31833 1.6003-.15495 3.2591.46947 4.7666s1.68184 2.796 3.03855 3.7025 2.95175 1.3904 4.58345 1.3904c2.1873-.0025 4.2843-.8725 5.8309-2.4191s2.4166-3.6436 2.4191-5.8309z" fill="#116db3"/></svg>