<svg fill="none" height="24" viewBox="0 0 24 24" width="24" xmlns="http://www.w3.org/2000/svg"><path d="m20.25 6h-15.75l1.5 7.5h12.75z" fill="#a695e7"/><circle cx="7.5" cy="19.125" fill="#000" fill-opacity=".16" r="1.125"/><circle cx="17.25" cy="19.125" fill="#000" fill-opacity=".16" r="1.125"/><path clip-rule="evenodd" d="m1.5 1.5c-.41421 0-.75.33579-.75.75s.33579.75.75.75h1.68969l1.93171 10.6338c.00356.0196.00786.0389.01288.0579l.63002 3.464c-.54533.481-.8893 1.185-.8893 1.9693 0 1.4497 1.17525 2.625 2.625 2.625s2.625-1.1753 2.625-2.625c0-.4026-.0906-.784-.25261-1.125h5.00521c-.162.341-.2526.7224-.2526 1.125 0 1.4497 1.1753 2.625 2.625 2.625s2.625-1.1753 2.625-2.625-1.1753-2.625-2.625-2.625h-10.08035l-.40923-2.25h10.87298c.5265.0013 1.0367-.1829 1.441-.5202s.6768-.8062.7699-1.3244l.0002-.0015 1.1433-6.26935c.0399-.21885-.0194-.44413-.1619-.61496s-.3534-.26959-.5759-.26959h-15.12648l-.45696-2.51247-.00031-.00169c-.06149-.34378-.24102-.65535-.50764-.88095-.26707-.22598-.60472-.35154-.95455-.35489zm4.9876 11.25-1.08944-6h13.95274l-.9825 5.3873-.0004.0025c-.0307.1715-.1208.3266-.2546.4382-.1337.1116-.3025.1725-.4767.172h-.0023zm9.6374 6.375c0-.6213.5037-1.125 1.125-1.125s1.125.5037 1.125 1.125-.5037 1.125-1.125 1.125-1.125-.5037-1.125-1.125zm-8.625-1.125c-.62132 0-1.125.5037-1.125 1.125s.50368 1.125 1.125 1.125 1.125-.5037 1.125-1.125-.50368-1.125-1.125-1.125z" fill="#1f1f1f" fill-rule="evenodd"/></svg>