<svg fill="none" height="24" viewBox="0 0 24 24" width="24" xmlns="http://www.w3.org/2000/svg"><path d="m21.75 12c0 5.3848-4.3652 9.75-9.75 9.75-5.38478 0-9.75-4.3652-9.75-9.75 0-5.38478 4.36522-9.75 9.75-9.75 5.3848 0 9.75 4.36522 9.75 9.75z" fill="#fff"/><path d="m18.9246 18.8639c-.5198.5244-1.0988.99-1.7261 1.3861h-10.39702c-.62727-.3961-1.20623-.8617-1.72604-1.3861 1.13062-2.7095 3.8052-4.6139 6.92456-4.6139 3.1194 0 5.794 1.9044 6.9246 4.6139z" fill="#d0e7f9"/><path d="m17.7105 19.9036c.4328-.3133.8389-.6612 1.2141-1.0397-1.1306-2.7095-3.8052-4.6139-6.9246-4.6139-3.11936 0-5.79394 1.9044-6.92456 4.6139.37522.3785.78126.7264 1.21404 1.0397.77876-2.4103 3.04106-4.1536 5.71052-4.1536 2.6695 0 4.9318 1.7433 5.7105 4.1536z" fill="#116db3"/><path d="m16.5 11.25c0 2.4853-2.0147 4.5-4.5 4.5-2.48528 0-4.5-2.0147-4.5-4.5 0-2.48528 2.01472-4.5 4.5-4.5 2.4853 0 4.5 2.01472 4.5 4.5z" fill="#f5ce85"/><g clip-rule="evenodd" fill-rule="evenodd"><path d="m12 14.25c1.6569 0 3-1.3431 3-3 0-1.65685-1.3431-3-3-3s-3 1.34315-3 3c0 1.6569 1.3431 3 3 3zm0 1.5c2.4853 0 4.5-2.0147 4.5-4.5 0-2.48528-2.0147-4.5-4.5-4.5-2.48528 0-4.5 2.01472-4.5 4.5 0 2.4853 2.01472 4.5 4.5 4.5z" fill="#7a4f34"/><path d="m12 20.25c4.5563 0 8.25-3.6937 8.25-8.25 0-4.55635-3.6937-8.25-8.25-8.25-4.55635 0-8.25 3.69365-8.25 8.25 0 4.5563 3.69365 8.25 8.25 8.25zm0 1.5c5.3848 0 9.75-4.3652 9.75-9.75 0-5.38478-4.3652-9.75-9.75-9.75-5.38478 0-9.75 4.36522-9.75 9.75 0 5.3848 4.36522 9.75 9.75 9.75z" fill="#116db3"/></g></svg>