<svg fill="none" height="24" viewBox="0 0 24 24" width="24" xmlns="http://www.w3.org/2000/svg"><path d="m3.75 7.5h17.25v12h-17.25z" fill="#eda86c"/><path d="m20.25 6.75h-15c-.19891 0-.38968-.07902-.53033-.21967s-.21967-.33142-.21967-.53033.07902-.38968.21967-.53033.33142-.21967.53033-.21967h12.75c.1989 0 .3897-.07902.5303-.21967.1407-.14065.2197-.33142.2197-.53033s-.079-.38968-.2197-.53033c-.1406-.14065-.3314-.21967-.5303-.21967h-12.75c-.59674 0-1.16903.23705-1.59099.65901s-.65901.99425-.65901 1.59099v12c0 .5967.23705 1.169.65901 1.591.42196.4219.99425.659 1.59099.659h15c.3978 0 .7794-.158 1.0607-.4393s.4393-.6629.4393-1.0607v-10.5c0-.39782-.158-.77936-.4393-1.06066s-.6629-.43934-1.0607-.43934zm0 12h-15c-.19891 0-.38968-.079-.53033-.2197-.14065-.1406-.21967-.3314-.21967-.5303v-9.87844c.24082.08537.4945.12881.75.12844h15zm-4.5-5.625c0-.2225.066-.44.1896-.625s.2993-.3292.5049-.4144c.2055-.0851.4317-.1074.65-.064.2182.0434.4187.1506.576.3079s.2645.3578.3079.576c.0434.2183.0211.4445-.064.65-.0852.2056-.2294.3813-.4144.5049s-.4025.1896-.625.1896c-.2984 0-.5845-.1185-.7955-.3295s-.3295-.4971-.3295-.7955z" fill="#7a3d00"/></svg>