<svg fill="none" height="24" viewBox="0 0 24 24" width="24" xmlns="http://www.w3.org/2000/svg"><path d="m22.2 17.6334-8.1984-14.23777c-.2049-.34882-.4974-.63805-.8484-.83901-.3511-.20096-.7486-.30668-1.1532-.30668-.4045 0-.802.10572-1.1531.30668s-.6436.49019-.84843.83901l-8.19844 14.23777c-.19712.3374-.30101.7212-.30101 1.1119 0 .3908.10389.7745.30101 1.1119.20225.3509.49422.6417.84596.8425.35174.2009.75059.3045 1.1556.3003h16.39691c.4047.0039.8031-.0999 1.1545-.3007s.6431-.4915.8452-.8421c.1974-.3372.3016-.7209.3019-1.1116.0003-.3908-.1032-.7746-.3001-1.1122zm-1.3003 1.4729c-.0715.1219-.1741.2226-.2973.2918s-.2626.1043-.4039.1019h-16.39691c-.1413.0024-.28071-.0327-.40394-.1019s-.22584-.1699-.29731-.2918c-.06474-.1097-.09889-.2346-.09889-.3619s.03415-.2523.09889-.3619l8.19846-14.23781c.0729-.12134.176-.22174.2992-.29145.1232-.0697.2623-.10634.4039-.10634s.2807.03664.4039.10634c.1232.06971.2263.17011.2992.29145l8.1985 14.23781c.0641.1099.0976.2351.097.3624-.0007.1273-.0355.2521-.1008.3614zm-9.6497-5.6063v-3.75c0-.19891.079-.38968.2197-.53033s.3314-.21967.5303-.21967.3897.07902.5304.21967c.1406.14065.2196.33142.2196.53033v3.75c0 .1989-.079.3897-.2196.5303-.1407.1407-.3315.2197-.5304.2197s-.3896-.079-.5303-.2197c-.1407-.1406-.2197-.3314-.2197-.5303zm1.875 3.375c0 .2225-.066.44-.1896.625s-.2993.3292-.5049.4144c-.2055.0851-.4317.1074-.6499.064-.2183-.0434-.4187-.1506-.5761-.3079-.1573-.1573-.2644-.3578-.3079-.576-.0434-.2183-.0211-.4445.0641-.65.0851-.2056.2293-.3813.4143-.5049s.4025-.1896.625-.1896c.2984 0 .5845.1185.7955.3295s.3295.4971.3295.7955z" fill="#caa500"/></svg>