<svg fill="none" height="24" viewBox="0 0 24 24" width="24" xmlns="http://www.w3.org/2000/svg"><g fill="#000"><path d="m12 2.25c-1.9284 0-3.81343.57183-5.41681 1.64317-1.60337 1.07135-2.85306 2.59409-3.59101 4.37567-.73796 1.78156-.93104 3.74196-.55483 5.63326.3762 1.8913 1.3048 3.6286 2.66836 4.9922s3.10085 2.2922 4.99219 2.6684c1.8913.3762 3.8517.1831 5.6333-.5549 1.7815-.7379 3.3043-1.9876 4.3756-3.591 1.0714-1.6034 1.6432-3.4884 1.6432-5.4168-.0027-2.58502-1.0308-5.06339-2.8587-6.89128-1.8279-1.82788-4.3063-2.85599-6.8913-2.85872zm0 18c-1.6317 0-3.22674-.4839-4.58345-1.3904s-2.41413-2.195-3.03855-3.7025-.7878-3.1663-.46947-4.7666c.31832-1.60034 1.10406-3.07035 2.25784-4.22413 1.15379-1.15378 2.6238-1.93952 4.22413-2.25785 1.6004-.31833 3.2592-.15495 4.7666.46947 1.5075.62443 2.796 1.68185 3.7025 3.03856.9065 1.3567 1.3904 2.95175 1.3904 4.58345-.0025 2.1873-.8725 4.2843-2.4191 5.8309s-3.6436 2.4166-5.8309 2.4191z"/><path clip-rule="evenodd" d="m14.8 8v2.4c0 .36-.0793.7015-.2213 1.008.8376.3745 1.4213 1.2151 1.4213 2.192v2.4h-5.6c-1.32548 0-2.4-1.0745-2.4-2.4v-3.2c0-1.32548 1.07452-2.4 2.4-2.4zm-1.6 2.4c0 .4418-.3582.8-.8.8h-1.2v1.6h2.4c.4418 0 .8.3582.8.8v.8h-4c-.44183 0-.8-.3582-.8-.8v-3.2c0-.44183.35817-.8.8-.8h2.8z" fill-rule="evenodd"/></g></svg>