<svg fill="none" height="24" viewBox="0 0 24 24" width="24" xmlns="http://www.w3.org/2000/svg"><path d="m3 7.5h18v12c0 .8284-.6716 1.5-1.5 1.5h-15c-.82843 0-1.5-.6716-1.5-1.5z" fill="#fff"/><path clip-rule="evenodd" d="m19.5 9h-15v10.5h15zm-16.5-1.5v12c0 .8284.67157 1.5 1.5 1.5h15c.8284 0 1.5-.6716 1.5-1.5v-12z" fill="#292929" fill-opacity=".8" fill-rule="evenodd"/><g fill="#8f8f8f"><path d="m7.5 13.125c.62132 0 1.125-.5037 1.125-1.125s-.50368-1.125-1.125-1.125-1.125.5037-1.125 1.125.50368 1.125 1.125 1.125z"/><path d="m13.125 12c0 .6213-.5037 1.125-1.125 1.125s-1.125-.5037-1.125-1.125.5037-1.125 1.125-1.125 1.125.5037 1.125 1.125z"/><path d="m16.5 13.125c.6213 0 1.125-.5037 1.125-1.125s-.5037-1.125-1.125-1.125-1.125.5037-1.125 1.125.5037 1.125 1.125 1.125z"/><path d="m8.625 16.5c0 .6213-.50368 1.125-1.125 1.125s-1.125-.5037-1.125-1.125.50368-1.125 1.125-1.125 1.125.5037 1.125 1.125z"/><path d="m12 17.625c.6213 0 1.125-.5037 1.125-1.125s-.5037-1.125-1.125-1.125-1.125.5037-1.125 1.125.5037 1.125 1.125 1.125z"/></g><path d="m3 4.5c0-.82843.67157-1.5 1.5-1.5h15c.8284 0 1.5.67157 1.5 1.5v4.5h-18z" fill="#f9bbb9"/><path clip-rule="evenodd" d="m19.5 4.5h-15v3h15zm-15-1.5c-.82843 0-1.5.67157-1.5 1.5v4.5h18v-4.5c0-.82843-.6716-1.5-1.5-1.5z" fill="#c0433f" fill-rule="evenodd"/><path d="m8.25 2.25c0-.41421-.33579-.75-.75-.75s-.75.33579-.75.75v3c0 .41421.33579.75.75.75s.75-.33579.75-.75z" fill="#292929" fill-opacity=".8"/><path d="m17.25 2.25c0-.41421-.3358-.75-.75-.75s-.75.33579-.75.75v3c0 .41421.3358.75.75.75s.75-.33579.75-.75z" fill="#292929" fill-opacity=".8"/></svg>