<svg fill="none" height="24" viewBox="0 0 24 24" width="24" xmlns="http://www.w3.org/2000/svg"><path d="m21 5.25v3.19312c-.4174-.34874-.8996-.6115-1.4189-.77317-.5193-.16166-1.0654-.21904-1.607-.16882-.5415.05022-1.0678.20704-1.5485.46144s-.9064.60135-1.2525 1.02089-.6059.90338-.7643 1.42364c-.1584.5204-.2123 1.0668-.1587 1.6081.0536.5412.2138 1.0665.4712 1.5456s.607.9026 1.0287 1.2461v3.1931h-12c-.19891 0-.38968-.079-.53033-.2197-.14065-.1406-.21967-.3314-.21967-.5303v-12c0-.19891.07902-.38968.21967-.53033s.33142-.21967.53033-.21967h16.5c.1989 0 .3897.07902.5303.21967.1407.14065.2197.33142.2197.53033z" fill="#d0e7f9"/><path d="m12 12.75c0 .1989-.079.3897-.2197.5303-.1406.1407-.3314.2197-.5303.2197h-4.5c-.19891 0-.38968-.079-.53033-.2197-.14065-.1406-.21967-.3314-.21967-.5303s.07902-.3897.21967-.5303c.14065-.1407.33142-.2197.53033-.2197h4.5c.1989 0 .3897.079.5303.2197.1407.1406.2197.3314.2197.5303zm-.75-3.75h-4.5c-.19891 0-.38968.07902-.53033.21967s-.21967.33142-.21967.53033.07902.3897.21967.5303c.14065.1407.33142.2197.53033.2197h4.5c.1989 0 .3897-.079.5303-.2197.1407-.1406.2197-.33139.2197-.5303s-.079-.38968-.2197-.53033c-.1406-.14065-.3314-.21967-.5303-.21967zm10.5 6.1378v5.8622c.0012.1322-.0326.2624-.0979.3774-.0654.1149-.16.2106-.2742.2772s-.244.1019-.3762.1021c-.1322.0003-.2622-.0343-.3767-.1005l-2.25-1.2881-2.25 1.2881c-.1145.0662-.2445.1008-.3767.1005-.1322-.0002-.262-.0355-.3762-.1021s-.2088-.1623-.2742-.2772c-.0653-.115-.0991-.2452-.0979-.3774v-2.25h-11.25c-.39782 0-.77936-.158-1.06066-.4393s-.43934-.6629-.43934-1.0607v-12c0-.39782.15804-.77936.43934-1.06066s.66284-.43934 1.06066-.43934h16.5c.3978 0 .7794.15804 1.0607.43934s.4393.66284.4393 1.06066v2.86219c.4741.45401.8514.9993 1.1092 1.60302.2577.60369.3906 1.25339.3906 1.90979s-.1329 1.3061-.3906 1.9098c-.2578.6037-.6351 1.149-1.1092 1.603zm-6.75 2.1122v-2.1122c-.8173-.7882-1.3338-1.837-1.4604-2.9654-.1267-1.1284.1446-2.26555.7669-3.21531.6222-.94976 1.5565-1.65251 2.6416-1.98698 1.0851-.33448 2.2529-.2797 3.3019.15489v-1.875h-16.5v12zm5.25-1.125c-.594.2482-1.2313.3759-1.875.3759s-1.281-.1277-1.875-.3759v3.5831l1.5-.8587c.1133-.0648.2416-.0989.3722-.0989.1305 0 .2588.0341.3722.0989l1.5.8587zm1.5-4.5c0-.6675-.1979-1.32-.5688-1.87505-.3708-.55502-.8979-.9876-1.5146-1.24304-.6167-.25545-1.2953-.32229-1.95-.19206-.6547.13022-1.2561.45166-1.7281.92366-.472.47201-.7934 1.07339-.9237 1.72809-.1302.6547-.0633 1.3333.1921 1.95.2555.6167.688 1.1438 1.2431 1.5146.555.3709 1.2075.5688 1.875.5688.4432 0 .8821-.0873 1.2916-.2569.4094-.1696.7815-.4182 1.0949-.7316s.562-.6855.7316-1.0949c.1696-.4095.2569-.8484.2569-1.2916z" fill="#116db3"/><path d="m16 20.5v-5.5h5v5.5l-2.5-1.5z" fill="#73b8ec"/><circle cx="18.5" cy="11.5" fill="#f9bbb9" r="4"/><path clip-rule="evenodd" d="m18.375 15c1.864 0 3.375-1.511 3.375-3.375 0-1.86396-1.511-3.375-3.375-3.375s-3.375 1.51104-3.375 3.375c0 1.864 1.511 3.375 3.375 3.375zm0 1.5c2.6924 0 4.875-2.1826 4.875-4.875 0-2.69239-2.1826-4.875-4.875-4.875s-4.875 2.18261-4.875 4.875c0 2.6924 2.1826 4.875 4.875 4.875z" fill="#c0433f" fill-rule="evenodd"/></svg>