<svg fill="none" height="24" viewBox="0 0 24 24" width="24" xmlns="http://www.w3.org/2000/svg"><path d="m16.5 19.875c-5.25 3.15-10.875-1-12-3.375l15.375-9c1.75 2.875 2.25 9-3.375 12.375z" fill="#6ec9cb"/><path d="m8.99999 10.125v-6.375c-5.4 1.5-6.25 7.125-6 9.75z" fill="#a695e7"/><path d="m12 3v8.625l7.5-4.125c-.9-3.6-5.375-4.5-7.5-4.5z" fill="#eda86c"/><g clip-rule="evenodd" fill="#334747" fill-rule="evenodd"><path d="m3.55295 16.8629c-.19741-.3568-.07334-.8075.28126-1.0123l7.41579-4.2835v-8.5671c0-.41421.3358-.75.75-.75 1.7084.00019 3.3869.4493 4.8672 1.30233 1.4802.85303 2.7103 2.08004 3.5671 3.55813.8568 1.47808 1.3101 3.15534 1.3146 4.86374.0045 1.7085-.4399 3.3881-1.2889 4.8707-.8489 1.4826-2.0726 2.7161-3.5483 3.5769-1.4757.8609-3.1517 1.3188-4.8601 1.3281-1.7084.0092-3.3893-.4307-4.87422-1.2755-1.48492-.8449-2.72178-2.0651-3.58668-3.5385-.01405-.0239-.02663-.0483-.03775-.073zm9.19705-13.07865v6.91645l5.9884-3.45908c-.6881-.97467-1.5814-1.791-2.6202-2.38965-1.035-.59645-2.1845-.95952-3.3682-1.06772zm6.7386 4.7563-7.102 4.10225c-.008.0048-.016.0095-.0242.014l-7.10232 4.1024c.69699.9869 1.60404 1.8111 2.65908 2.4114 1.25647.7149 2.67874 1.0871 4.12434 1.0793s2.8637-.3953 4.1124-1.1237 2.2841-1.7722 3.0024-3.0267c.7184-1.2545 1.0945-2.6757 1.0906-4.1213-.0031-1.1902-.2637-2.36254-.7603-3.43765z"/><path d="m9.43321 2.90341c.19866.14059.31676.36884.31676.61221v6.74998c0 .2677-.1427.5152-.37443.6492l-5.85 3.3844c-.2106.1218-.46722.1339-.68836.0325-.22114-.1015-.37931-.3039-.42428-.5431-.11101-.5901-.16557-1.1896-.16293-1.7901-.00088-2.01589.62373-3.98243 1.78772-5.62838 1.16436-1.64648 2.81105-2.89099 4.7128-3.56179.22952-.08095.48405-.04551.68272.09508zm-1.18324 1.74813c-1.18588.60413-2.21291 1.48924-2.98758 2.58467-.98506 1.39293-1.51351 3.05729-1.51242 4.76329l-.00001.004c-.00065.1426.00252.2851.00952.4274l4.49049-2.59785z"/></g></svg>