<svg fill="none" height="24" viewBox="0 0 24 24" width="24" xmlns="http://www.w3.org/2000/svg"><path d="m21 12c0 .1989-.079.3897-.2197.5303-.1406.1407-.3314.2197-.5303.2197h-8.25c-.1989 0-.3897-.079-.5303-.2197-.1407-.1406-.2197-.3314-.2197-.5303s.079-.3897.2197-.5303c.1406-.1407.3314-.2197.5303-.2197h8.25c.1989 0 .3897.079.5303.2197.1407.1406.2197.3314.2197.5303zm-9-5.25h8.25c.1989 0 .3897-.07902.5303-.21967.1407-.14065.2197-.33142.2197-.53033s-.079-.38968-.2197-.53033c-.1406-.14065-.3314-.21967-.5303-.21967h-8.25c-.1989 0-.3897.07902-.5303.21967-.1407.14065-.2197.33142-.2197.53033s.079.38968.2197.53033c.1406.14065.3314.21967.5303.21967zm.25 10.5h-.25c-.1989 0-.3897.079-.5303.2197-.1407.1406-.2197.3314-.2197.5303s.079.3897.2197.5303c.1406.1407.3314.2197.5303.2197h.25c.1989 0 .3897-.079.5303-.2197.1407-.1406.2197-.3314.2197-.5303s-.079-.3897-.2197-.5303c-.1406-.1407-.3314-.2197-.5303-.2197z" fill="#292929"/><g fill="#287f49"><path d="m5.25005 6.43962 2.46938-2.47032c.14073-.14073.3316-.21979.53062-.21979s.3899.07906.53063.21979.21979.33161.21979.53063-.07906.38989-.21979.53062l-3 3c-.06966.06974-.15238.12506-.24342.1628-.09105.03774-.18865.05717-.28721.05717s-.19616-.01943-.2872-.05717c-.09105-.03774-.17377-.09306-.24342-.1628l-1.5-1.5c-.14073-.14073-.2198-.3316-.2198-.53062s.07907-.3899.2198-.53063.3316-.21979.53062-.21979.3899.07906.53063.21979z"/><path d="m5.25005 12.4396 2.46938-2.4703c.14073-.14073.3316-.21979.53062-.21979s.3899.07906.53063.21979c.14073.1407.21979.3316.21979.5306 0 .1991-.07906.3899-.21979.5307l-3 3c-.06966.0697-.15238.125-.24342.1627-.09105.0378-.18865.0572-.28721.0572s-.19616-.0194-.2872-.0572c-.09105-.0377-.17377-.093-.24342-.1627l-1.5-1.5c-.06969-.0697-.12496-.1525-.16267-.2435-.03772-.091-.05713-.1886-.05713-.2872 0-.199.07907-.3899.2198-.5306s.3316-.2198.53062-.2198.3899.0791.53063.2198z"/><path d="m5.25005 18.4396 2.46938-2.4703c.14073-.1407.3316-.2198.53062-.2198s.3899.0791.53063.2198.21979.3316.21979.5306c0 .1991-.07906.3899-.21979.5307l-3 3c-.06966.0697-.15238.125-.24342.1627-.09105.0378-.18865.0572-.28721.0572s-.19616-.0194-.2872-.0572c-.09105-.0377-.17377-.093-.24342-.1627l-1.5-1.5c-.06969-.0697-.12496-.1525-.16267-.2435-.03772-.091-.05713-.1886-.05713-.2872 0-.0985.01941-.1961.05713-.2871.03771-.0911.09298-.1738.16267-.2435.06968-.0697.1524-.125.24345-.1627.09104-.0377.18862-.0571.28717-.0571s.19613.0194.28717.0571c.09105.0377.17377.093.24346.1627z"/></g><path clip-rule="evenodd" d="m24 19.5c0 2.4853-2.0147 4.5-4.5 4.5s-4.5-2.0147-4.5-4.5 2.0147-4.5 4.5-4.5 4.5 2.0147 4.5 4.5zm-2.976 2.5846c-.4466.2639-.9676.4154-1.524.4154-1.6569 0-3-1.3431-3-3 0-.5564.1515-1.0774.4154-1.524zm1.0607-1.0607-4.1086-4.1086c.4466-.2639.9676-.4153 1.5239-.4153 1.6569 0 3 1.3431 3 3 0 .5563-.1514 1.0773-.4153 1.5239z" fill="#f0544f" fill-rule="evenodd"/></svg>