<svg fill="none" height="24" viewBox="0 0 24 24" width="24" xmlns="http://www.w3.org/2000/svg"><path d="m7.5 6c0-.19891.07902-.38968.21967-.53033s.33142-.21967.53033-.21967h12c.1989 0 .3897.07902.5303.21967.1407.14065.2197.33142.2197.53033s-.079.38968-.2197.53033c-.1406.14065-.3314.21967-.5303.21967h-12c-.19891 0-.38968-.07902-.53033-.21967s-.21967-.33142-.21967-.53033zm12.75 5.25h-12c-.19891 0-.38968.079-.53033.2197-.14065.1406-.21967.3314-.21967.5303s.07902.3897.21967.5303c.14065.1407.33142.2197.53033.2197h12c.1989 0 .3897-.079.5303-.2197.1407-.1406.2197-.3314.2197-.5303s-.079-.3897-.2197-.5303c-.1406-.1407-.3314-.2197-.5303-.2197zm0 6h-12c-.19891 0-.38968.079-.53033.2197-.14065.1406-.21967.3314-.21967.5303s.07902.3897.21967.5303c.14065.1407.33142.2197.53033.2197h12c.1989 0 .3897-.079.5303-.2197.1407-.1406.2197-.3314.2197-.5303s-.079-.3897-.2197-.5303c-.1406-.1407-.3314-.2197-.5303-.2197z" fill="#292929"/><g fill="#1588e0"><path d="m3.49998 5.0646c.18501-.12362.40252-.1896.62502-.1896.29837 0 .58452.11853.7955.3295.21097.21098.3295.49713.3295.7955 0 .2225-.06598.44001-.1896.62502-.12361.185-.29931.3292-.50488.41434-.20557.08515-.43177.10743-.65.06402-.21822-.0434-.41868-.15055-.57601-.30788-.15734-.15734-.26448-.35779-.30789-.57602s-.02113-.44443.06402-.65c.08514-.20557.22934-.38127.41434-.50488z"/><path d="m3.49998 11.0646c.18501-.1236.40252-.1896.62502-.1896.29837 0 .58452.1185.7955.3295.21097.211.3295.4971.3295.7955 0 .2225-.06598.44-.1896.625-.12361.185-.29931.3292-.50488.4144-.20557.0851-.43177.1074-.65.064-.21822-.0434-.41868-.1506-.57601-.3079-.15734-.1573-.26448-.3578-.30789-.576-.04341-.2183-.02113-.4445.06402-.65.08514-.2056.22934-.3813.41434-.5049z"/><path d="m3.49998 17.0646c.18501-.1236.40252-.1896.62502-.1896.29837 0 .58452.1185.7955.3295.21097.211.3295.4971.3295.7955 0 .2225-.06598.44-.1896.625-.12361.185-.29931.3292-.50488.4144-.20557.0851-.43177.1074-.65.064-.21822-.0434-.41868-.1506-.57601-.3079-.15734-.1573-.26448-.3578-.30789-.576-.04341-.2183-.02113-.4445.06402-.65.08514-.2056.22934-.3813.41434-.5049z"/></g></svg>