<svg fill="none" height="24" viewBox="0 0 24 24" width="24" xmlns="http://www.w3.org/2000/svg"><path d="m21 12c0 1.78-.5278 3.5201-1.5168 5.0001-.9889 1.4801-2.3945 2.6336-4.039 3.3148-1.6446.6812-3.4542.8594-5.2.5122-1.74584-.3473-3.34948-1.2045-4.60816-2.4631-1.25867-1.2587-2.11584-2.8624-2.4631-4.6082-.34727-1.7458-.16904-3.5554.51215-5.19995.68119-1.64454 1.83474-3.05014 3.31478-4.03908 1.48004-.98893 3.22013-1.51677 5.00013-1.51677 2.387 0 4.6761.94821 6.364 2.63604 1.6878 1.68783 2.636 3.97701 2.636 6.36396z" fill="#d0e7f9"/><path d="m12 2.25c-1.9284 0-3.81343.57183-5.41681 1.64317-1.60337 1.07134-2.85306 2.59409-3.59101 4.37567-.73796 1.78156-.93104 3.74196-.55483 5.63326.3762 1.8913 1.3048 3.6286 2.66836 4.9922 1.36357 1.3636 3.10085 2.2922 4.99219 2.6684 1.8913.3762 3.8517.1831 5.6333-.5549 1.7815-.7379 3.3043-1.9876 4.3756-3.591 1.0714-1.6034 1.6432-3.4884 1.6432-5.4168-.0027-2.58502-1.0308-5.06339-2.8587-6.89128-1.8279-1.82788-4.3063-2.85599-6.8913-2.85872zm0 18c-1.6317 0-3.22674-.4839-4.58345-1.3904s-2.41413-2.195-3.03855-3.7025-.7878-3.1663-.46947-4.7666c.31832-1.60034 1.10406-3.07035 2.25784-4.22413 1.15379-1.15378 2.6238-1.93952 4.22413-2.25785 1.6004-.31833 3.2592-.15495 4.7666.46947 1.5075.62443 2.796 1.68185 3.7025 3.03856.9065 1.3567 1.3904 2.95175 1.3904 4.58345-.0025 2.1873-.8725 4.2843-2.4191 5.8309s-3.6436 2.4166-5.8309 2.4191zm3-6.75h-.75v-6c-.0001-.15616-.049-.30839-.1399-.43543-.0908-.12704-.219-.22257-.3667-.27325s-.3075-.05399-.4572-.00947c-.1497.04453-.2818.13466-.3778.25784l-5.24996 6.75001c-.08613.1108-.13945.2435-.15389.3831s.01057.2805.0722.4065c.06162.1261.15739.2324.2764.3068.11902.0743.25652.1138.39685.1139h4.5v1.5c0 .1989.079.3897.2197.5303.1406.1407.3314.2197.5303.2197s.3897-.079.5303-.2197c.1407-.1406.2197-.3314.2197-.5303v-1.5h.75c.1989 0 .3897-.079.5303-.2197.1407-.1406.2197-.3314.2197-.5303s-.079-.3897-.2197-.5303c-.1406-.1407-.3314-.2197-.5303-.2197zm-2.25 0h-2.96625l2.96625-3.81375z" fill="#116db3"/></svg>