<svg fill="none" height="24" viewBox="0 0 24 24" width="24" xmlns="http://www.w3.org/2000/svg"><path d="m8.98125 5.26876c.36709.36712.61707.83485.71833 1.34404.10127.5092.04927 1.03698-.14942 1.51662s-.53514.8896-.96681 1.17802c-.43168.28843-.93918.44238-1.45835.44238-.51916 0-1.02667-.15395-1.45834-.44238-.43168-.28842-.76813-.69838-.96682-1.17802-.19868-.47964-.25068-1.00742-.14942-1.51662.10126-.50919.35125-.97692.71833-1.34404.24376-.24379.53315-.43717.85165-.5691.31849-.13194.65986-.19984 1.0046-.19984s.68611.0679 1.00461.19984c.31849.13193.60788.32531.85164.5691zm9.75005 9.75004c-.3672-.3671-.8349-.6171-1.3441-.7184-.5092-.1012-1.037-.0492-1.5166.1494-.4797.1987-.8896.5352-1.178.9669-.2885.4316-.4424.9391-.4424 1.4583s.1539 1.0267.4424 1.4583c.2884.4317.6983.7682 1.178.9669.4796.1987 1.0074.2507 1.5166.1494s.9769-.3513 1.3441-.7183c.2437-.2438.4371-.5332.569-.8517.132-.3185.1999-.6599.1999-1.0046s-.0679-.6861-.1999-1.0046c-.1319-.3185-.3253-.6079-.569-.8516z" fill="#d0e7f9"/><path d="m19.2806 5.77873-13.5 13.49997c-.14073.1408-.3316.2198-.53062.2198-.19903 0-.3899-.079-.53063-.2198-.14073-.1407-.21979-.3316-.21979-.5306s.07906-.3899.21979-.5306l13.50005-13.50002c.1406-.14073.3313-.21984.5302-.21993.199-.00009.3898.07885.5305.21946.1408.14061.2199.33136.22.53029 0 .19894-.0789.38976-.2195.53049zm-14.5425 3.73125c-.63291-.63304-.98843-1.49158-.98834-2.38674.00008-.89516.35577-1.75363.98881-2.38654.63304-.63292 1.49157-.98844 2.38674-.98835.89516.00009 1.75363.35578 2.38654.98882.63295.63303.98845 1.49157.98835 2.38673-.0001.89517-.3558 1.75363-.98882 2.38655-.63304.63295-1.49157.98845-2.38674.98835-.89516-.0001-1.75363-.3558-2.38654-.98882zm.51188-2.385c.00024.30829.0765.61177.22202.88356s.35581.5035.61226.67462.55113.27636.85796.30641c.30682.03005.61633-.01602.9011-.13413s.53602-.30462.73151-.54301c.19549-.2384.32918-.52131.38923-.8237s.04461-.61492-.04495-.90992-.25048-.56337-.46851-.78133c-.26233-.26226-.59656-.44081-.9604-.51306-.36384-.07226-.74093-.03497-1.08357.10714-.34264.14212-.63542.38267-.84131.69123-.20589.30855-.31564.67125-.31534 1.04219zm15.00002 9.75002c-.0002.7808-.2711 1.5374-.7666 2.1409-.4955.6034-1.1849 1.0164-1.9507 1.1686s-1.5608.0341-2.2493-.3341c-.6885-.3683-1.2281-.9638-1.5268-1.6853-.2986-.7214-.3379-1.5241-.1111-2.2712.2268-.7472.7056-1.3926 1.3549-1.8262.6493-.4337 1.4289-.6289 2.206-.5522.777.0767 1.5034.4204 2.0555.9726.3143.3127.5635.6847.7332 1.0944.1696.4098.2562.849.2549 1.2925zm-1.5 0c.0001-.4338-.1503-.8542-.4254-1.1896s-.658-.565-1.0835-.6497c-.4254-.0847-.8671-.0193-1.2497.1851s-.6825.5352-.8486.9359c-.166.4008-.188.8467-.0622 1.2618.1259.4152.3918.7738.7524 1.0149.3607.2411.7937.3496 1.2255.3072.4317-.0425.8353-.2333 1.1421-.54.1747-.1737.3132-.3802.4075-.6078.0943-.2275.1425-.4715.1419-.7178z" fill="#1588e0"/></svg>