<svg fill="none" height="24" viewBox="0 0 24 24" width="24" xmlns="http://www.w3.org/2000/svg"><path clip-rule="evenodd" d="m12.7478 11.0936-4.82685 3.3054c-.60814-.5647-1.40302-.8856-2.23277-.9012-.82975-.0157-1.63619.2749-2.26523.8162s-1.03659 1.2954-1.14476 2.1182c-.10817.8229.09061 1.6567.55836 2.3422s1.17169 1.1747 1.97729 1.374c.80561.1993 1.65641.0948 2.38984-.2935.73343-.3884 1.29807-1.0333 1.58603-1.8117.28796-.7783.27906-1.6354-.02501-2.4076l3.9853-2.7263 1.343-.8951zm-5.67315 4.5918c.27513.3353.42545.7557.42536 1.1895.00072.2464-.04747.4904-.14178.7179-.0943.2276-.23285.4342-.4076.6078-.30678.3067-.71042.4975-1.14214.5399-.43171.0425-.86479-.0661-1.22544-.3071-.36064-.2411-.62655-.5997-.7524-1.0149-.12585-.4151-.10387-.8611.06221-1.2618.16608-.4008.46598-.7315.84859-.9359.38262-.2044.82427-.2699 1.24972-.1852.42544.0848.80835.3144 1.08348.6498z" fill="#2f3e4c" fill-rule="evenodd"/><path d="m14.945 9.59025c-.0652.05079-.1216.11207-.167.18143-.0539.08255-.091.17493-.1092.27182-.0182.0969-.0171.1965.0032.293s.0595.188.1152.2694c.0686.1002.1605.1822.2678.239.1072.0568.2267.0868.3481.0872.151.0003.2985-.0455.4228-.1312l6.3441-4.34065c.1547-.1157.2588-.28664.2906-.4772.0318-.19057-.0111-.38605-.1199-.54571-.1088-.15967-.275-.27119-.464-.31134s-.3861-.00583-.5504.09582l-3.3275 2.27701.0012.00116z" fill="#2f3e4c"/><path clip-rule="evenodd" d="m21.8879 18.8965c.1955-.0366.3684-.1493.4808-.3134.0555-.0818.0942-.1736.114-.2704.0198-.0967.0203-.1965.0015-.2934-.0188-.097-.0566-.1892-.1111-.2716-.0546-.0823-.1249-.153-.2069-.2081l-13.40622-9.17528c.30211-.76921.31032-1.62274.02305-2.39762s-.84988-1.4168-1.5804-1.80318c-.73053-.38638-1.57777-.49016-2.37995-.2915-.80218.19865-1.50309.68581-1.96888 1.36845s-.66382 1.51293-.55629 2.33231c.10754.81939.51311 1.57046 1.13928 2.10979.62616.53933 1.42903.82913 2.25531.81403.82627-.015 1.61805-.3339 2.22413-.89571l3.50527 2.39911 1.3285.9093 8.5762 5.8688c.1641.1123.3662.1549.5617.1184zm-14.42399-11.40689c-.07239.36373-.25102.69783-.5133.96003-.17315.17574-.37952.3153-.60709.41056-.22758.09525-.47183.14431-.71854.14431s-.49096-.04906-.71853-.14431c-.22758-.09526-.43394-.23482-.60709-.41056-.26228-.2622-.44092-.5963-.51331-.96003s-.03529-.74075.1066-1.0834c.1419-.34264.38222-.63551.69058-.84156.30835-.20606.67089-.31604 1.04175-.31604.37087 0 .7334.10998 1.04175.31604.30836.20605.54868.49892.69058.84156.1419.34265.179.71967.1066 1.0834z" fill="#5d7c98" fill-rule="evenodd"/></svg>