<svg fill="none" height="24" viewBox="0 0 24 24" width="24" xmlns="http://www.w3.org/2000/svg"><path d="m6.41273 10.9337c-.26643.6788-.41273 1.418-.41273 2.1913 0 .254.01581.5043.04649.75h-5.166271c.842601-1.7737 2.650481-3 4.744781-3 .26773 0 .53078.02.78773.0587z" fill="#5bb2e0"/><path d="m6.7438 10.2292c-.24573.4451-.43657.9247-.5634 1.4297-.182-.0224-.36736-.0339-.5554-.0339-1.52856 0-2.87939.7614-3.69385 1.9291-.23697.3397-.70448.423-1.044209.186-.339732-.2369-.423037-.7044-.186066-1.0442 1.082965-1.5526 2.884565-2.5709 4.924125-2.5709.38235 0 .75634.0358 1.1188.1042z" fill="#116db3"/><path d="m9.37223 7.72953c-1.54722.75495-2.72147 2.15582-3.17173 3.85157-.18761.0289-.3798.0439-.5755.0439-2.07107 0-3.75-1.67893-3.75-3.75s1.67893-3.75 3.75-3.75c2.02236 0 3.6708 1.60088 3.74723 3.60453z" fill="#f5ce85"/><path clip-rule="evenodd" d="m6.2005 11.5811c-.18761.0289-.3798.0439-.5755.0439-2.07107 0-3.75-1.67893-3.75-3.75s1.67893-3.75 3.75-3.75c2.02235 0 3.6708 1.60088 3.74723 3.60453-1.54722.75495-2.72147 2.15582-3.17173 3.85157zm1.6745-3.7061c0 1.24264-1.00736 2.25-2.25 2.25s-2.25-1.00736-2.25-2.25 1.00736-2.25 2.25-2.25 2.25 1.00736 2.25 2.25z" fill="#7a4f34" fill-rule="evenodd"/><path d="m17.9535 13.875c.0306-.2457.0465-.496.0465-.75 0-.7733-.1463-1.5125-.4128-2.1913.257-.0387.52-.0587.7878-.0587 2.0942 0 3.9021 1.2263 4.7447 3z" fill="#5bb2e0"/><path d="m17.8196 11.6589c-.1269-.505-.3177-.9846-.5634-1.4297.3624-.0684.7364-.1042 1.1188-.1042 2.0395 0 3.8411 1.0183 4.9241 2.5709.237.3398.1537.8073-.1861 1.0442-.3397.237-.8072.1537-1.0442-.186-.8144-1.1677-2.1653-1.9291-3.6938-1.9291-.1881 0-.3734.0115-.5554.0339z" fill="#116db3"/><path d="m18.375 11.625c2.071 0 3.75-1.67893 3.75-3.75s-1.679-3.75-3.75-3.75c-2.0224 0-3.6708 1.60088-3.7473 3.60453 1.5473.75495 2.7215 2.15582 3.1718 3.85157.1876.0289.3798.0439.5755.0439z" fill="#f5ce85"/><path clip-rule="evenodd" d="m22.125 7.875c0 2.07107-1.679 3.75-3.75 3.75-.1957 0-.3879-.015-.5755-.0439-.4503-1.69575-1.6245-3.09662-3.1718-3.85157.0765-2.00365 1.7249-3.60453 3.7473-3.60453 2.071 0 3.75 1.67893 3.75 3.75zm-1.5 0c0 1.24264-1.0074 2.25-2.25 2.25-1.2427 0-2.25-1.00736-2.25-2.25s1.0073-2.25 2.25-2.25c1.2426 0 2.25 1.00736 2.25 2.25z" fill="#7a4f34" fill-rule="evenodd"/><path d="m17.7012 21h-11.40243c.78734-2.3954 3.0423-4.125 5.70123-4.125 2.6589 0 4.9139 1.7296 5.7012 4.125z" fill="#d6edf9"/><path clip-rule="evenodd" d="m12 17.625c-2.07469 0-3.86975 1.2034-4.72262 2.9535-.18145.3724-.6304.5272-1.00276.3457-.37235-.1814-.52711-.6304-.34566-1.0027 1.09456-2.2462 3.40104-3.7965 6.07104-3.7965s4.9765 1.5503 6.071 3.7965c.1815.3723.0267.8213-.3456 1.0027-.3724.1815-.8213.0267-1.0028-.3457-.8529-1.7501-2.6479-2.9535-4.7226-2.9535z" fill="#116db3" fill-rule="evenodd"/><path d="m16.5 13.125c0 2.4853-2.0147 4.5-4.5 4.5-2.48528 0-4.5-2.0147-4.5-4.5s2.01472-4.5 4.5-4.5c2.4853 0 4.5 2.0147 4.5 4.5z" fill="#f5ce85"/><path clip-rule="evenodd" d="m12 16.125c1.6569 0 3-1.3431 3-3s-1.3431-3-3-3-3 1.3431-3 3 1.3431 3 3 3zm0 1.5c2.4853 0 4.5-2.0147 4.5-4.5s-2.0147-4.5-4.5-4.5c-2.48528 0-4.5 2.0147-4.5 4.5s2.01472 4.5 4.5 4.5z" fill="#7a4f34" fill-rule="evenodd"/></svg>