<svg fill="none" height="24" viewBox="0 0 24 24" width="24" xmlns="http://www.w3.org/2000/svg"><path d="m15.5306 9.53063-2.4703 2.46937 2.4703 2.4694c.0697.0697.125.1524.1627.2434.0377.0911.0571.1887.0571.2872s-.0194.1961-.0571.2872c-.0377.091-.093.1737-.1627.2434s-.1524.125-.2434.1627c-.0911.0377-.1886.0571-.2872.0571-.0985 0-.1961-.0194-.2872-.0571-.091-.0377-.1737-.093-.2434-.1627l-2.4694-2.4703-2.46937 2.4703c-.06968.0697-.15241.125-.24345.1627-.09105.0377-.18863.0571-.28718.0571-.09854 0-.19612-.0194-.28717-.0571-.09104-.0377-.17377-.093-.24345-.1627s-.12496-.1524-.16267-.2434c-.03771-.0911-.05712-.1887-.05712-.2872s.01941-.1961.05712-.2872c.03771-.091.09299-.1737.16267-.2434l2.47032-2.4694-2.47032-2.46937c-.14073-.14074-.21979-.33161-.21979-.53063s.07906-.38989.21979-.53063c.14073-.14073.3316-.21979.53062-.21979.19903 0 .3899.07906.53063.21979l2.46937 2.47033 2.4694-2.47033c.0697-.06968.1524-.12495.2434-.16267.0911-.03771.1887-.05712.2872-.05712.0986 0 .1961.01941.2872.05712.091.03772.1737.09299.2434.16267.0697.06969.125.15241.1627.24346.0377.09104.0571.18862.0571.28717s-.0194.19613-.0571.28717c-.0377.09105-.093.17377-.1627.24346zm6.2194 2.46937c0 1.9284-.5718 3.8134-1.6432 5.4168-1.0713 1.6034-2.5941 2.8531-4.3756 3.591-1.7816.738-3.742.9311-5.6333.5549-1.89134-.3762-3.62862-1.3048-4.99219-2.6684-1.36356-1.3636-2.29216-3.1009-2.66836-4.9922-.37621-1.8913-.18313-3.8517.55483-5.63326.73795-1.78158 1.98764-3.30433 3.59101-4.37567 1.60338-1.07134 3.48841-1.64317 5.41681-1.64317 2.585.00273 5.0634 1.03084 6.8913 2.85872 1.8279 1.82789 2.856 4.30626 2.8587 6.89128zm-1.5 0c0-1.6317-.4839-3.22675-1.3904-4.58345-.9065-1.35671-2.195-2.41413-3.7025-3.03856-1.5074-.62442-3.1662-.7878-4.7666-.46947-1.60033.31833-3.07034 1.10407-4.22413 2.25785-1.15378 1.15378-1.93952 2.62379-2.25784 4.22413-.31833 1.6003-.15495 3.2591.46947 4.7666s1.68184 2.796 3.03855 3.7025 2.95175 1.3904 4.58345 1.3904c2.1873-.0025 4.2843-.8725 5.8309-2.4191s2.4166-3.6436 2.4191-5.8309z" fill="#f0544f"/></svg>